<?xml version="1.0" standalone="no"?><!DOCTYPE svg PUBLIC "-//W3C//DTD SVG 1.1//EN" "http://www.w3.org/Graphics/SVG/1.1/DTD/svg11.dtd"><svg class="icon" width="200px" height="200.00px" viewBox="0 0 1024 1024" version="1.1" xmlns="http://www.w3.org/2000/svg"><path d="M376.96 185.27h292.55c44.09 0 79.84-35.74 79.84-79.84v-7.19H297.12v7.19c0 44.09 35.75 79.84 79.84 79.84zM669.22 841.09H377.25c-44.25 0-80.13 35.88-80.13 80.13v6.9h452.23v-6.9c0-44.25-35.88-80.13-80.13-80.13zM491.33 509.04c0.29 0.29 0.77 0.29 1.06 0l0.19-0.19V387.22L302.79 197.43c-53.22-53.22-39.13-99.2-39.13-99.2l-37.43 37.42c-24.35 24.35-16.82 91.47 13.08 121.37l252.02 252.02zM302.8 832.74l189.79-189.79V521.32l-0.19-0.19a0.754 0.754 0 0 0-1.06 0L239.32 773.15c-29.9 29.9-37.43 97.02-13.08 121.37l37.43 37.42c-0.01 0-14.1-45.97 39.13-99.2zM548.41 515.09l246.41-246.41c29.9-29.9 37.43-97.02 13.08-121.37l-37.42-37.42s14.09 45.98-39.14 99.2c-41.78 41.79-129.98 129.98-189.79 189.79v232.43L731.34 821.1c53.23 53.22 39.14 99.2 39.14 99.2l37.42-37.42c24.35-24.35 16.82-91.47-13.08-121.37L548.41 515.09zM512.32 231.11h41.38v41.38h-41.38zM442.39 272.49h59.44v31.25h-59.44zM565.94 282.39h29.14v22.15h-29.14zM477.35 332.51h39.63v32.64h-39.63zM472.11 710.14h40.21v40.21h-40.21zM548.45 714.77h51.28v35.58h-51.28zM612.56 766.09h47.79v47.79h-47.79zM501.83 766.09h39.72v39.72h-39.72zM419.08 766.09h40.79v40.79h-40.79z" /></svg>