<?xml version="1.0" standalone="no"?><!DOCTYPE svg PUBLIC "-//W3C//DTD SVG 1.1//EN" "http://www.w3.org/Graphics/SVG/1.1/DTD/svg11.dtd"><svg class="icon" width="200px" height="200.00px" viewBox="0 0 1024 1024" version="1.1" xmlns="http://www.w3.org/2000/svg"><path d="M786.2 463.6l-86.4 49.8 159.4 260.8s52.3 9.5 89.7-40.3L786.2 463.6z"  /><path d="M961.4 770.2s-19.9 26.9-63.9 32.4l-274.9-0.8V782l-71.4 67.2 68.1 68.7 0.8-20.5 232.5 4.7s113-3.1 108.8-131.9zM500.6 802.6v94l-327.2 0.8s-24.1-44.3 9.1-94.8h318.1z"  /><path d="M135.2 887.1s-15.8-52.2 30.7-109.8l109.6-181 19.9 7.1-23.2-94.8-97.2 23.7 17.4 11.9L79.6 722.8s-58.2 109.8 55.6 164.3zM253.2 448.7l83.5 49.2L496.8 233s-26.3-44.5-81-52.5L253.2 448.7z"  /><path d="M444.6 153s48.2 9.9 82.5 73.3 111.4 189.2 111.4 189.2l-16.4 11.4 96.9 26 28.8-91.3-20.9 9-108.8-185.4S563.9 91 444.6 153z"  /></svg>