<?xml version="1.0" standalone="no"?><!DOCTYPE svg PUBLIC "-//W3C//DTD SVG 1.1//EN" "http://www.w3.org/Graphics/SVG/1.1/DTD/svg11.dtd"><svg class="icon" width="200px" height="200.00px" viewBox="0 0 1024 1024" version="1.1" xmlns="http://www.w3.org/2000/svg"><path d="M676.321505 817.890307v101.629593h78.119323l-187.982646 101.555761v-312.551122h201.888501c25.304677 0 46.474834-11.825755 60.098207-29.301166 1.242282 16.826984-0.173342 33.920401-4.673805 50.699235-9.803436 36.607197-32.472677 67.471649-64.008025 87.967699H676.321505z m-219.229091-109.288727h0.702997v312.474081l-187.976226-101.555761h78.119323v-101.629593H255.149342c-67.150646 0-127.293793-34.716489-160.867511-92.882257-25.654571-44.426834-31.638069-95.421392-18.101367-142.955536 23.327298 69.070245 86.680476 119.83047 162.363386 124.536376 5.325442 1.155611 10.824226 1.935649 16.605492 1.935649h201.943072v0.077041z m472.13141-169.348414c33.576928 58.149718 33.576928 127.598746 0 185.754884-25.757292 44.619436-67.173116 75.371536-115.371736 87.296803a182.365091 182.365091 0 0 0 40.102921-74.296176c11.697354-43.630746 7.039599-89.03985-12.949266-129.113881-1.640326-5.055799-3.672276-10.079498-6.500314-14.958746L577.911574 149.48795c-5.514834-9.543423-12.576903-17.302069-20.608402-23.272727-10.522483-7.816426-22.701342-12.512702-35.239724-14.185129 44.324113-30.636539 103.186458-36.478796 153.917793-11.418081l253.239373 438.641153zM184.32 660.618031c-48.558144-23.359398-82.786708-71.6479-86.076991-128.231122L350.878897 94.808276C384.465455 36.648928 444.598972 1.932439 511.756038 1.932439c50.917517 0 97.774345 19.988865 132.10563 54.994257-71.243436-13.841655-146.44163 15.741994-188.101417 78.767749a78.064752 78.064752 0 0 0-10.16938 13.796715L188.997016 593.93605c-7.350972 12.734194-10.570633 26.254846-10.336301 39.387085 0.118771 6.567724 1.091411 13.032727 2.844088 19.247348 0.770408 2.741367 1.749467 5.415323 2.818407 8.047548z" /></svg>