<?xml version="1.0" standalone="no"?><!DOCTYPE svg PUBLIC "-//W3C//DTD SVG 1.1//EN" "http://www.w3.org/Graphics/SVG/1.1/DTD/svg11.dtd"><svg class="icon" width="200px" height="200.00px" viewBox="0 0 1024 1024" version="1.1" xmlns="http://www.w3.org/2000/svg"><path d="M540.28 541.8l79.24-1.73 79.24-1.72-80.96 80.96-80.96 80.96 1.72-79.24zM587.543 645.866l56.809-56.809L927.984 872.69l-56.809 56.809zM485.72 536.02l-79.24-1.72-79.24-1.72 80.96 80.96 80.96 80.96-1.72-79.24zM154.807 923.739L97.998 866.93 381.63 583.298l56.808 56.809zM540.28 488.09l-1.72-79.24-1.72-79.24 80.96 80.96 80.96 80.96-79.24-1.72zM644.358 440.821l-56.809-56.808L871.181 100.38l56.809 56.808zM485.72 488.09l1.72-79.24 1.72-79.24-80.96 80.96-80.96 80.96 79.24-1.72zM98.002 157.177l56.808-56.809L438.442 384l-56.808 56.809z" /></svg>